<svg id="Layer_1" enable-background="new 0 0 512.148 512.148" height="512" viewBox="0 0 512.148 512.148" width="512" xmlns="http://www.w3.org/2000/svg"><g><path d="m487.179 207.296c-7.035 0-13.482-4.675-15.425-11.789-.151-.555-.309-1.102-.471-1.653-2.504-8.474 2.336-17.374 10.81-19.878 8.473-2.503 17.374 2.336 19.878 10.811.227.764.442 1.522.652 2.291 2.782 10.182-4.901 20.218-15.444 20.218z"/></g><g><path d="m255.904 512.129c-110.056.003-213.519-71.899-246.003-185.881-31.16-109.336 13.536-221.346 101.654-281.517 126.225-86.19 297.043-42.88 368.865 87.931 4.253 7.746 1.421 17.473-6.325 21.725-7.744 4.254-17.473 1.421-21.726-6.325-83.619-152.303-305.646-156.099-392.008-.893-60.056 107.93-21.107 244.598 86.822 304.653 75.045 41.757 168.791 36.581 238.826-13.19 61.385-43.601 98.175-117.045 93.778-194.945-.498-8.823 6.25-16.378 15.073-16.876 8.811-.483 16.379 6.25 16.876 15.073 8.206 145.383-107.49 270.245-255.832 270.245z"/></g><path d="m372.475 202.223c4.748-5.788 4.751-13.956.411-19.728-1.076-1.435 3.62 3.369-49.473-49.724-6.248-6.249-16.379-6.249-22.627 0-6.249 6.248-6.249 16.379 0 22.627l20.687 20.687h-9.373c-88.225 0-160 71.776-160 160 0 8.836 7.163 16 16 16s16-7.164 16-16c0-70.58 57.421-128 128-128h9.373l-20.687 20.687c-6.249 6.248-6.249 16.379 0 22.627 6.247 6.248 16.379 6.249 22.627 0 51.486-51.488 48.303-48.252 49.062-49.176z"/></svg>