<svg id="Layer_1" enable-background="new 0 0 512.162 512.162" height="512" viewBox="0 0 512.162 512.162" width="512" xmlns="http://www.w3.org/2000/svg"><g><path d="m23.749 211.848c-10.461 0-18.083-9.855-15.52-19.943.196-.772.397-1.535.609-2.303 2.354-8.518 11.169-13.51 19.683-11.163 8.518 2.354 13.516 11.165 11.163 19.683-.153.555-.298 1.104-.439 1.662-1.839 7.242-8.35 12.064-15.496 12.064z"/></g><g><path d="m256.483 512.162c-147.475 0-261.125-122.284-256.333-264.431.299-8.831 7.72-15.742 16.53-15.452 8.831.298 15.75 7.699 15.452 16.53-5.854 173.652 183.113 290.267 336.613 200.905 106.989-62.289 143.178-199.28 80.883-306.284-60.531-103.973-196.935-144.541-306.285-80.882-36.734 21.387-66.462 52.522-85.968 90.042-4.077 7.839-13.734 10.889-21.577 6.815-7.84-4.076-10.892-13.736-6.815-21.577 63.542-122.219 215.838-174.83 343.586-109.675 103.29 52.68 162.85 172.699 130.991 293.341-30.48 115.421-134.4 190.668-247.077 190.668z"/></g><path d="m216.047 176.128h-9.373l20.687-20.687c6.249-6.248 6.249-16.379 0-22.627-6.248-6.248-16.379-6.248-22.627 0-51.524 51.524-49.736 49.014-51.468 53.19-1.073 2.594-1.465 5.403-1.041 8.382 1.013 7.161.858 5.404 52.509 57.055 3.124 3.124 7.219 4.687 11.313 4.687 14.125 0 21.424-17.205 11.313-27.313l-20.687-20.687h9.373c70.579 0 128 57.421 128 128 0 8.837 7.163 16 16 16s16-7.163 16-16c.001-88.225-71.774-160-159.999-160z"/></svg>