<svg id="Capa_1" enable-background="new 0 0 512 512" height="512" viewBox="0 0 512 512" width="512" xmlns="http://www.w3.org/2000/svg"><g><path d="m256 326.333c38.782 0 70.333-31.551 70.333-70.334 0-38.782-31.551-70.333-70.333-70.333s-70.333 31.552-70.333 70.334 31.551 70.333 70.333 70.333zm-15-85.333h30v30h-30z"/><path d="m437.02 74.981c-48.353-48.352-112.64-74.981-181.02-74.981s-132.667 26.629-181.02 74.981c-48.351 48.352-74.98 112.639-74.98 181.019s26.629 132.667 74.98 181.02c48.353 48.351 112.64 74.98 181.02 74.98s132.667-26.629 181.02-74.98c48.351-48.353 74.98-112.64 74.98-181.02s-26.629-132.667-74.98-181.019zm-297.422 43.405c31.436-26.631 72.072-42.719 116.402-42.719v30c-36.056 0-69.185 12.764-95.115 34.005zm-21.213 21.213 21.286 21.286c-21.241 25.93-34.005 59.059-34.005 95.115h-30c.001-44.329 16.089-84.966 42.719-116.401zm137.615 16.068c55.324 0 100.333 45.009 100.333 100.333s-45.009 100.334-100.333 100.334-100.333-45.01-100.333-100.334 45.009-100.333 100.333-100.333zm0 250.666c36.056 0 69.185-12.764 95.115-34.005l21.286 21.286c-31.435 26.631-72.072 42.719-116.401 42.719zm137.614-33.932-21.286-21.286c21.241-25.93 34.005-59.059 34.005-95.116h30c0 44.33-16.088 84.967-42.719 116.402z"/></g></svg>