<svg id="Layer" enable-background="new 0 0 512 512" height="512" viewBox="0 0 512 512" width="512" xmlns="http://www.w3.org/2000/svg"><path d="m296 357v130.46c0 13.455 11.011 24.791 24.464 24.536 13.041-.248 23.536-10.896 23.536-23.996v-131c0-2.761-2.239-5-5-5h-38c-2.761 0-5 2.239-5 5z"/><path d="m168 357v130.46c0 13.455 11.011 24.791 24.464 24.536 13.041-.248 23.536-10.896 23.536-23.996v-131c0-2.761-2.239-5-5-5h-38c-2.761 0-5 2.239-5 5z"/><path d="m448 5.014v146.66c0 3.185 2.944 5.585 6.053 4.895 33.11-7.353 57.947-36.935 57.947-72.225v-12c0-35.29-24.837-64.872-57.947-72.225-3.109-.69-6.053 1.71-6.053 4.895z"/><path d="m64 5.014c0-3.185-2.944-5.585-6.053-4.895-33.11 7.352-57.947 36.934-57.947 72.225v12c0 35.29 24.837 64.872 57.947 72.225 3.109.69 6.053-1.71 6.053-4.895z"/><path d="m395 0h-99c-13.255 0-24 10.745-24 24v112 136c0 26.51 21.49 48 48 48 26.51 0 48-21.49 48-48v-112h27c2.761 0 5-2.239 5-5v-150c0-2.761-2.239-5-5-5z"/><path d="m216 0h-99c-2.761 0-5 2.239-5 5v150c0 2.761 2.239 5 5 5h27v112c0 26.51 21.49 48 48 48 26.51 0 48-21.49 48-48v-136-112c0-13.255-10.745-24-24-24z"/></svg>