<?xml version="1.0" encoding="iso-8859-1"?>
<!-- Generator: Adobe Illustrator 19.0.0, SVG Export Plug-In . SVG Version: 6.00 Build 0)  -->
<svg version="1.1" id="Capa_1" xmlns="http://www.w3.org/2000/svg" xmlns:xlink="http://www.w3.org/1999/xlink" x="0px" y="0px"
	 viewBox="0 0 350.578 350.578" style="enable-background:new 0 0 350.578 350.578;" xml:space="preserve">
<g>
	<g>
		<g>
			<path d="M172.678,67.918c4.328,0,7.837-3.509,7.837-7.837V7.837c0-4.328-3.509-7.837-7.837-7.837s-7.837,3.509-7.837,7.837
				v52.245C164.842,64.41,168.35,67.918,172.678,67.918z"/>
			<path d="M331.503,51.722c-3.462-2.597-8.375-1.895-10.971,1.567l-31.347,41.796c-2.597,3.462-1.895,8.375,1.567,10.971
				c1.373,0.986,3.012,1.532,4.702,1.567c2.487,0.09,4.849-1.091,6.269-3.135l31.347-41.796
				C335.667,59.231,334.965,54.319,331.503,51.722z"/>
			<path d="M61.397,95.086L30.05,53.29c-2.594-3.464-7.506-4.17-10.97-1.575c-3.464,2.594-4.17,7.506-1.575,10.97
				c0.002,0.003,0.004,0.006,0.007,0.009l31.347,41.796c1.42,2.043,3.782,3.224,6.269,3.135c1.69-0.035,3.329-0.582,4.702-1.567
				C63.292,103.46,63.994,98.548,61.397,95.086z"/>
			<path d="M225.968,137.927c-18.229,0.594-35.869,6.595-50.678,17.241c-14.895-10.93-32.736-17.12-51.2-17.763
				c-32.914,0-58.514,22.988-65.306,58.514c-9.927,50.155,20.375,117.029,110.759,153.078c1.695,1.131,3.712,1.681,5.747,1.567
				c2.194,0.06,4.362-0.482,6.269-1.567c89.339-36.049,119.641-102.4,110.237-152.555
				C284.483,160.914,258.883,137.927,225.968,137.927z"/>
		</g>
	</g>
</g>
<g>
</g>
<g>
</g>
<g>
</g>
<g>
</g>
<g>
</g>
<g>
</g>
<g>
</g>
<g>
</g>
<g>
</g>
<g>
</g>
<g>
</g>
<g>
</g>
<g>
</g>
<g>
</g>
<g>
</g>
</svg>
