<?xml version="1.0" encoding="iso-8859-1"?>
<!-- Generator: Adobe Illustrator 19.0.0, SVG Export Plug-In . SVG Version: 6.00 Build 0)  -->
<svg version="1.1" id="Capa_1" xmlns="http://www.w3.org/2000/svg" xmlns:xlink="http://www.w3.org/1999/xlink" x="0px" y="0px"
	 viewBox="0 0 512.139 512.139" style="enable-background:new 0 0 512.139 512.139;" xml:space="preserve">
<g>
	<g>
		<g>
			<path d="M337.541,13.345c-26.213-8.8-53.679-13.295-81.33-13.31c-49.904-0.072-98.733,14.504-140.432,41.92l17.6,26.752
				c103.338-67.594,241.907-38.618,309.501,64.72s38.618,241.907-64.72,309.501s-241.907,38.618-309.501-64.72
				c-37.466-57.277-46.633-128.56-24.88-193.453l-30.4-10.192c-44.996,134.034,27.184,279.166,161.218,324.162
				s279.166-27.184,324.162-161.218S471.575,58.341,337.541,13.345z"/>
			<path d="M70.1,131.347l-26.56-17.84c-6.348,9.448-12.056,19.31-17.088,29.52l28.704,14.144
				C59.554,148.239,64.547,139.611,70.1,131.347z"/>
			<path d="M109.572,86.691L88.58,62.531c-8.574,7.469-16.655,15.486-24.192,24l24,21.184
				C94.988,100.257,102.064,93.234,109.572,86.691z"/>
			<rect x="240.212" y="160.035" width="32" height="256"/>
			<rect x="240.212" y="96.035" width="32" height="32"/>
		</g>
	</g>
</g>
<g>
</g>
<g>
</g>
<g>
</g>
<g>
</g>
<g>
</g>
<g>
</g>
<g>
</g>
<g>
</g>
<g>
</g>
<g>
</g>
<g>
</g>
<g>
</g>
<g>
</g>
<g>
</g>
<g>
</g>
</svg>
