<svg height="512" viewBox="0 0 56 56" width="512" xmlns="http://www.w3.org/2000/svg"><g id="Page-1" fill="none" fill-rule="evenodd"><g id="004---Turntable" fill="rgb(0,0,0)" fill-rule="nonzero"><path id="Rectangle-path" d="m41.995 35.057h4.999v4h-4.999z" transform="matrix(.652 -.758 .758 .652 -12.612 46.634)"/><circle id="Oval" cx="28" cy="28" r="1"/><path id="Shape" d="m28 37c4.9705627 0 9-4.0294373 9-9s-4.0294373-9-9-9-9 4.0294373-9 9c.006061 4.9680501 4.0319499 8.993939 9 9zm0-12c1.6568542 0 3 1.3431458 3 3s-1.3431458 3-3 3-3-1.3431458-3-3 1.3431458-3 3-3z"/><path id="Rectangle-path" d="m33.293 41.253h10.001v6h-10.001z" transform="matrix(.653 -.758 .758 .653 -20.228 44.387)"/><path id="Shape" d="m54.989 20.538-1 8.805c-.0687057.5656828-.2949708 1.1006801-.653 1.544l-3.858 4.813c.3026563.6936642.1784508 1.4996373-.319 2.07l-3.447 4c.235034.6708093.0952129 1.4160136-.367 1.956l-6.526 7.577c-.7205591.8367822-1.9829406.931237-2.82.211l-4.546-3.914c-.4022884-.3459197-.6506424-.8375114-.6904024-1.3665818s.1323327-1.0522589.4784024-1.4544182l6.527-7.579c.4672018-.5371514 1.184717-.7854634 1.884-.652l3.44-4c.3455156-.4053843.840462-.653579 1.372-.688.1334483-.0080548.2673563-.0037028.4.013l3.26-4.073 1.942-17.027c-8.8476844-11.2909063-24.8153611-14.03277534-36.9227787-6.34014738-12.10741751 7.69262798-16.4086096 23.31262448-9.94584033 36.11882218 6.46276927 12.8061976 21.58319853 18.6248884 34.96365033 13.4548211 13.3804517-5.1700674 20.660061-19.6439001 16.8329687-33.4684959zm-8.481-9.374c.4230227-.3550222 1.053748-.299919 1.4087991.1230795.355051.4229984.299991 1.0537274-.1229832 1.4088074s-1.053707.300063-1.4088159-.1228869c-.1705604-.2031447-.2534235-.4657308-.2303558-.7299778.0230677-.2642471.1501761-.5085035.3533558-.6790222zm-3.2-2.958c.3551089-.42294993.9858417-.47796692 1.4088159-.12288692.4229742.35507999.4780342.98580901.1229832 1.40880746-.3550511.42299845-.9857764.47810164-1.4087991.12307946-.2043584-.16938034-.3329936-.41305735-.3575654-.67734558-.0245719-.26428824.0569357-.527503.2265654-.73165442zm-3.67-2.357c.2029986-.34998814.5968917-.5431662.9979026-.48940419.401011.05376201.7301118.34386909.8337558.73496764.103644.39109854-.0385942.80611392-.3603514 1.05141476-.3217571.24530084-.7596237.27254519-1.109307.06902179-.4782682-.27615038-.6421293-.88771969-.366-1.366zm-4.027-1.683c.1881112-.51919507.7614606-.78763083 1.2806858-.59960275.5192252.18802809.7877528.76133449.5998079 1.28058979s-.7612083.78787471-1.2804937.60001296c-.2494762-.09025293-.4528638-.27594191-.5653939-.51619371s-.1249789-.51537351-.0346061-.76480629zm-3.1-1.771c.543776.09619836.9066433.61495639.8105357 1.1587484-.0961075.54379201-.614805.90674595-1.158613.81072922-.5438081-.09601674-.9068486-.61465354-.8109227-1.15847762.0460409-.26209487.1946478-.49502973.412925-.64724194s.4882205-.21114683.750075-.16375806zm-4.511-.395c.5522847 0 1 .44771525 1 1s-.4477153 1-1 1-1-.44771525-1-1 .4477153-1 1-1zm-4.515.395c.3983599-.07033863.7998596.10625165 1.0172337.44740649.217374.34115484.2078011.77966881-.0242539 1.11101243s-.6408786.49024421-1.0357894.40258816c-.3949108-.08765606-.6981137-.40460104-.7681904-.80300708-.0956296-.54368179.2673812-1.06201292.811-1.158zm-4.378 1.173c.5191926-.18762792 1.0922108.08096572 1.2801436.600048.1879329.51908228-.0803242 1.09225817-.599296 1.28049585-.5189718.18823767-1.0923052-.07968269-1.2808476-.59854385-.0906832-.24955638-.078394-.5249323.0341582-.76541892.1125523-.24048662.316126-.42633778.5658418-.51658108zm-4.107 1.915c.350271-.20224528.7878822-.17357556 1.1087727.07264028.3208905.24621585.4618651.66148882.3571865 1.05217455-.1046786.39068572-.4343954.67984374-.8354013.73263786s-.794328-.14117276-.9965579-.49145269c-.2761293-.47828031-.1122682-1.08984962.366-1.366zm13 1.517c.5522847 0 1 .44771525 1 1s-.4477153 1-1 1c-10.4886126.0115735-18.9884265 8.5113874-19 19 0 .5522847-.44771525 1-1 1s-1-.4477153-1-1c.01267598-11.5927251 9.4072749-20.98732402 21-21zm-16.712 1.083c.4232822-.35468769 1.0539439-.2991163 1.4086779.1241271.3547341.4232434.2992317 1.05391111-.1239728 1.4086915-.4232046.35478038-1.0538784.2993471-1.4087051-.1238186-.1704436-.20327068-.2531369-.46593514-.2298812-.73018721.0232556-.26425206.1505545-.50843601.3538812-.67881279zm-3.2 3.205c.2599074-.3100427.68102256-.4329335 1.06689033-.3113425.38586777.1215911.66045497.4637051.69566344.8667419s-.17589942.7875802-.53483937.9742361c-.35893994.1866559-.79498475.1386448-1.1047144-.1216355-.4240023-.3535422-.48129793-.9837941-.128-1.408zm-2.605 3.712c.20222987-.3502799.59555204-.5442468.99655793-.4914527.4010059.0527941.73072263.3419521.83540124.7326379.1046786.3906857-.03629601.8059587-.35718649 1.0521745-.32089049.2462159-.75850165.2748856-1.10877268.0726403-.47826816-.2761504-.64212934-.8877197-.366-1.366zm-1.915 4.107c.18854245-.5188612.7618758-.7867815 1.28084761-.5985438.51897181.1882376.78722886.7614135.59929603 1.2804958s-.76095107.7876759-1.28014364.600048c-.24971577-.0902433-.45328952-.2760945-.56584176-.5165811s-.1248414-.5158625-.03415824-.7654189zm-.015 3.567c.39840604.0700767.71535102.3732796.80300708.7681904.08765605.3949108-.07124454.8037344-.40258816 1.0357894s-.76985759.2416279-1.11101243.0242539c-.34115484-.2173741-.51774512-.6188738-.44740649-1.0172337.09598708-.5436188.61431821-.9066296 1.158-.811zm-1.553 5.326c0-.5522847.44771525-1 1-1s1 .4477153 1 1-.44771525 1-1 1-1-.4477153-1-1zm.395 4.515c-.07033863-.3983599.10625165-.7998596.44740649-1.0172337.34115484-.217374.77966881-.2078011 1.11101243.0242539s.49024421.6408786.40258816 1.0357894c-.08765606.3949108-.40460104.6981137-.80300708.7681904-.54368179.0956296-1.06201292-.2673812-1.158-.811zm2.455 4.975c-.51919257.1876279-1.09221081-.0809657-1.28014364-.600048s.08032422-1.0922582.59929603-1.2804958c.51897181-.1882377 1.09230516.0796826 1.28084761.5985438.09068316.2495564.078394.5249323-.03415824.7654189s-.31612599.4263378-.56584176.5165811zm2 3.876c-.35012456.2025652-.78780021.1742517-1.1089077-.0717357-.3211075-.2459875-.46239801-.6611966-.35797774-1.0519859s.43398356-.6801846.83499112-.7332204.79447255.1407345.99689432.490942c.27612934.4782803.11226816 1.0898496-.366 1.366zm2.643 3.47c-.42302272.3550222-1.05374797.299919-1.40879906-.1230795-.35505109-.4229984-.299991-1.0537274.1229832-1.4088074.42297419-.35508 1.05370696-.300063 1.40881586.1228869.17044357.2032707.25313692.4659351.22988124.7301872s-.15055458.508436-.35388124.6788128zm3.2 2.958c-.3551089.4229499-.9858417.4779669-1.4088159.1228869s-.4780342-.985809-.1229832-1.4088074c.3550511-.4229985.9857764-.4781017 1.4087991-.1230795.2042107.169523.3326547.4132724.3570385.6775554.0243838.2642829-.0572929.5274189-.2270385.7314446zm-.693-18.794c-.5522847 0-1-.4477153-1-1 .010471-9.3845001 7.6154999-16.989529 17-17 .5522847 0 1 .4477153 1 1s-.4477153 1-1 1c-8.2803876.0093685-14.9906315 6.7196124-15 15 0 .5522847-.4477153 1-1 1zm4.366 21.151c-.2022299.3502799-.595552.5442468-.9965579.4914527s-.7307227-.3419521-.8354013-.7326379c-.1046786-.3906857.036296-.8059587.3571865-1.0521745.3208905-.2462159.7585017-.2748856 1.1087727-.0726403.4782682.2761504.6421293.8877197.366 1.366zm11.634-33.151c6.0751322 0 11 4.9248678 11 11s-4.9248678 11-11 11-11-4.9248678-11-11c.0071635-6.0721626 4.9278374-10.9928365 11-11zm-7.611 34.834c-.1881112.5191951-.7614606.7876308-1.2806858.5996027-.5192252-.188028-.7877528-.7613344-.5998079-1.2805897s.7612083-.7878747 1.2804937-.600013c.2494762.0902529.4528638.2759419.5653939.5161937s.1249789.5153735.0346061.7648063zm3.1 1.771c-.543776-.0961984-.9066433-.6149564-.8105357-1.1587484.0961075-.543792.614805-.9067459 1.158613-.8107292.5438081.0960167.9068486.6146535.8109227 1.1584776-.0460409.2620949-.1946478.4950297-.412925.6472419s-.4882205.2111469-.750075.1637581zm4.511.395c-.5522847 0-1-.4477153-1-1s.4477153-1 1-1 1 .4477153 1 1-.4477153 1-1 1zm4.515-.4c-.3983599.0703386-.7998596-.1062517-1.0172337-.4474065-.217374-.3411548-.2078011-.7796688.0242539-1.1110124s.6408786-.4902442 1.0357894-.4025882c.3949108.0876561.6981137.4046011.7681904.8030071.0473888.2618545-.0115459.5317978-.1637581.750075s-.385147.3668841-.6472419.412925z"/><path id="Shape" d="m46.583 32.92 1.515 1.3 3.681-4.6c.1199281-.1498053.1963788-.3296892.221-.52l3.192-27.987c.032162-.28279289-.0577016-.56589206-.2470743-.77836367s-.4603102-.33418241-.7449257-.33463633c-.5083349.00030246-.9355582.38192091-.993.887l-3.133 27.426c-.0213135.1873338-.0951529.3648257-.213.512z"/></g></g></svg>