<?xml version="1.0" encoding="iso-8859-1"?>
<!-- Generator: Adobe Illustrator 19.0.0, SVG Export Plug-In . SVG Version: 6.00 Build 0)  -->
<svg version="1.1" id="Capa_1" xmlns="http://www.w3.org/2000/svg" xmlns:xlink="http://www.w3.org/1999/xlink" x="0px" y="0px"
	 viewBox="0 0 512 512" style="enable-background:new 0 0 512 512;" xml:space="preserve">
<g>
	<g>
		<path d="M356,123.984l-120-90c-10.291-7.547-24,0.149-24,12.001v45h-47c-90.901,0-165,74.099-165,165
			c0,85.499,65.4,156,148.801,164.099l-42.9-32.1c-7.984-5.983-7.964-18.028,0-24l45.599-34.2c-35.1-6.299-61.5-36.9-61.5-73.799
			c0-41.4,33.6-75,75-75h47v45c0,11.841,13.705,19.553,24,11.999l120-90C364.001,142.447,364.018,129.537,356,123.984z"/>
	</g>
</g>
<g>
	<g>
		<path d="M363.199,91.884l42.9,32.1c7.984,5.987,7.966,18.03,0,24l-45.599,34.2c35.099,6.301,61.5,36.899,61.5,73.801
			c0,41.4-33.6,75-75,75h-45v-45c0-11.813-13.685-19.566-24-12.001l-122,90c-8.002,5.542-8.018,18.451,0,24l122,90
			c9.498,7.391,24,0.446,24-11.999v-45h45c90.901,0,165-74.101,165-165C512,170.484,446.6,99.985,363.199,91.884z"/>
	</g>
</g>
<g>
</g>
<g>
</g>
<g>
</g>
<g>
</g>
<g>
</g>
<g>
</g>
<g>
</g>
<g>
</g>
<g>
</g>
<g>
</g>
<g>
</g>
<g>
</g>
<g>
</g>
<g>
</g>
<g>
</g>
</svg>
