<svg height="512pt" viewBox="0 0 512 512" width="512pt" xmlns="http://www.w3.org/2000/svg"><path d="m276.5 217.5c-16.542969 0-30 13.457031-30 30s13.457031 30 30 30 30-13.457031 30-30-13.457031-30-30-30zm0 0"/><path d="m121.273438 305.871094-103.699219 103.703125c-11.332031 11.332031-17.574219 26.398437-17.574219 42.425781s6.242188 31.09375 17.574219 42.425781c11.695312 11.699219 27.0625 17.546875 42.425781 17.546875s30.730469-5.847656 42.425781-17.546875l103.703125-103.699219c-35.351562-20.105468-64.75-49.503906-84.855468-84.855468zm0 0"/><path d="m317 0c-107.523438 0-195 87.476562-195 195s87.476562 195 195 195 195-87.476562 195-195-87.476562-195-195-195zm97.980469 159.820312c-4.59375 6.894532-13.910157 8.753907-20.800781 4.160157l-57.679688-38.453125v121.972656c0 33.085938-26.914062 60-60 60s-60-26.914062-60-60 26.914062-60 60-60c10.925781 0 21.167969 2.949219 30 8.070312v-98.070312c0-5.53125 3.046875-10.613281 7.921875-13.226562 4.878906-2.609376 10.796875-2.324219 15.398437.746093l81 54c6.894532 4.59375 8.753907 13.910157 4.160157 20.800781zm0 0"/></svg>